# xmcd
#
# Track frame offsets:
#	150
#	13467
#	30272
#	47457
#	64112
#	83229
#	100155
#	122182
#	140665
#	160602
#
# Disc length: 2398 seconds
#
# Revision: 1
# Processed by: cddbd v1.4PL0 Copyright (c) Steve Scherf et al.
# Submitted via: audiograbber 1.80
#
DISCID=7c095c0a
DTITLE=Sean Hogan - Sean Hogan
DYEAR=1900
DGENRE=
TTITLE0=Beg, Borrow, And Steal The World
TTITLE1=Vulnerable
TTITLE2=Nothin' Could Be Better
TTITLE3=Livin' On The Countryside
TTITLE4=My Neck Of The Woods
TTITLE5=Wild Rose
TTITLE6=The Outcome
TTITLE7=Steady Burnin' Fire
TTITLE8=Slow Turning
TTITLE9=Heaven By Your Side
EXTD=
EXTT0=
EXTT1=
EXTT2=
EXTT3=
EXTT4=
EXTT5=
EXTT6=
EXTT7=
EXTT8=
EXTT9=
PLAYORDER=
